# https://github.com/mikedh/trimesh
mtllib material.mtl
usemtl material_0
v -1.00000000 -1.00000000 -1.00000000
v -1.00000000 -1.00000000 1.00000000
v -1.00000000 1.00000000 1.00000000
v -1.00000000 1.00000000 -1.00000000
v 1.00000000 -1.00000000 -1.00000000
v 1.00000000 1.00000000 -1.00000000
v 1.00000000 1.00000000 1.00000000
v 1.00000000 -1.00000000 1.00000000
v -1.00000000 -1.00000000 1.00000000
v 1.00000000 -1.00000000 1.00000000
v 1.00000000 1.00000000 1.00000000
v -1.00000000 1.00000000 1.00000000
v -1.00000000 -1.00000000 -1.00000000
v -1.00000000 1.00000000 -1.00000000
v 1.00000000 1.00000000 -1.00000000
v 1.00000000 -1.00000000 -1.00000000
v 1.00000000 -1.00000000 1.00000000
v -1.00000000 -1.00000000 1.00000000
v -1.00000000 -1.00000000 -1.00000000
v 1.00000000 -1.00000000 -1.00000000
v 1.00000000 1.00000000 -1.00000000
v -1.00000000 1.00000000 -1.00000000
v -1.00000000 1.00000000 1.00000000
v 1.00000000 1.00000000 1.00000000
vn -1.00000000 0.00000000 0.00000000
vn -1.00000000 0.00000000 0.00000000
vn -1.00000000 0.00000000 0.00000000
vn -1.00000000 0.00000000 0.00000000
vn 1.00000000 0.00000000 0.00000000
vn 1.00000000 0.00000000 0.00000000
vn 1.00000000 0.00000000 0.00000000
vn 1.00000000 0.00000000 0.00000000
vn 0.00000000 0.00000000 1.00000000
vn 0.00000000 0.00000000 1.00000000
vn 0.00000000 0.00000000 1.00000000
vn 0.00000000 0.00000000 1.00000000
vn 0.00000000 0.00000000 -1.00000000
vn 0.00000000 0.00000000 -1.00000000
vn 0.00000000 0.00000000 -1.00000000
vn 0.00000000 0.00000000 -1.00000000
vn 0.00000000 -1.00000000 0.00000000
vn 0.00000000 -1.00000000 0.00000000
vn 0.00000000 -1.00000000 0.00000000
vn 0.00000000 -1.00000000 0.00000000
vn 0.00000000 1.00000000 0.00000000
vn 0.00000000 1.00000000 0.00000000
vn 0.00000000 1.00000000 0.00000000
vn 0.00000000 1.00000000 0.00000000
vt 0.00030519 0.18172382
vt 0.57073979 0.18172382
vt 0.00030519 0.75215842
vt 0.57073979 0.75215842
vt 0.00030515 0.75296051
vt 0.14654549 0.75296051
vt 0.00030515 0.89920084
vt 0.14654549 0.89920084
vt 0.23519713 0.00030516
vt 0.46932805 0.00030516
vt 0.23519713 0.18096931
vt 0.46932805 0.18096931
vt 0.00030514 0.00030516
vt 0.12213144 0.00030516
vt 0.00030514 0.17266853
vt 0.12213144 0.17266853
vt 0.12287867 0.00030514
vt 0.20405561 0.00030514
vt 0.12287867 0.12213144
vt 0.20405561 0.12213144
vt 0.14729573 0.75296050
vt 0.24470799 0.75296050
vt 0.14729573 0.87319988
vt 0.24470799 0.87319988
f 1/1/1 2/2/2 3/3/3
f 3/3/3 4/4/4 1/1/1
f 5/5/5 6/6/6 7/7/7
f 7/7/7 8/8/8 5/5/5
f 9/9/9 10/10/10 11/11/11
f 11/11/11 12/12/12 9/9/9
f 13/13/13 14/14/14 15/15/15
f 15/15/15 16/16/16 13/13/13
f 17/17/17 18/18/18 19/19/19
f 19/19/19 20/20/20 17/17/17
f 21/21/21 22/22/22 23/23/23
f 23/23/23 24/24/24 21/21/21

